grf
version=1
nRows=15
nColumns=37
inDegrees=no
endheader
time	ground_force_1_vx	ground_force_1_vy	ground_force_1_vz	ground_force_1_px	ground_force_1_py	ground_force_1_pz	ground_moment_1_mx	ground_moment_1_my	ground_moment_1_mz	ground_force_2_vx	ground_force_2_vy	ground_force_2_vz	ground_force_2_px	ground_force_2_py	ground_force_2_pz	ground_moment_2_mx	ground_moment_2_my	ground_moment_2_mz	ground_force_3_vx	ground_force_3_vy	ground_force_3_vz	ground_force_3_px	ground_force_3_py	ground_force_3_pz	ground_moment_3_mx	ground_moment_3_my	ground_moment_3_mz	ground_force_4_vx	ground_force_4_vy	ground_force_4_vz	ground_force_4_px	ground_force_4_py	ground_force_4_pz	ground_moment_4_mx	ground_moment_4_my	ground_moment_4_mz
      4.88000000	      0.00000000	     -0.00000000	      0.00000000	      0.00000000	      0.00000000	      0.00000000	      0.00000000	      0.00000000	      0.00000000	     13.20315552	     10.55827713	    -88.72917938	   -201.83187748	  -1126.71547297	      0.00000000	      0.00000000	      0.00000000	    148.50588526	      2.82505968	    -21.50962091	   -180.61909485	   -211.64950219	   -707.83622692	      0.00000000	     -0.00000000	     -0.00000000	   -458.41776990	      0.00000000	     -0.00000000	      0.00000000	      0.00000000	      0.00000000	      0.00000000	      0.00000000	      0.00000000	      0.00000000
      4.89000000	      0.00000000	     -0.00000000	      0.00000000	      0.00000000	      0.00000000	      0.00000000	      0.00000000	      0.00000000	      0.00000000	     12.93192101	      8.74168968	    -81.72052002	   -197.27565951	  -1135.49396038	      0.00000000	      0.00000000	     -0.00000000	    -10.25691434	      3.13177753	    -19.02641705	   -167.02816772	   -211.89288915	   -707.35155276	      0.00000000	      0.00000000	     -0.00000000	   -722.72138497	      0.00000000	     -0.00000000	      0.00000000	      0.00000000	      0.00000000	      0.00000000	      0.00000000	      0.00000000	      0.00000000
      4.90000000	      0.00000000	     -0.00000000	      0.00000000	      0.00000000	      0.00000000	      0.00000000	      0.00000000	      0.00000000	      0.00000000	     12.12557220	      7.32984447	    -74.79032898	   -201.89262422	  -1135.26184040	      0.00000000	      0.00000000	     -0.00000000	   -140.25533793	      2.33478426	    -16.49502012	   -155.95936584	   -210.57766055	   -708.91219967	      0.00000000	      0.00000000	     -0.00000000	   -854.89075195	      0.00000000	     -0.00000000	      0.00000000	      0.00000000	      0.00000000	      0.00000000	      0.00000000	      0.00000000	      0.00000000
      4.91000000	      0.00000000	     -0.00000000	      0.00000000	      0.00000000	      0.00000000	      0.00000000	      0.00000000	      0.00000000	      0.00000000	     12.00609016	      7.07864094	    -71.17980957	   -195.61213161	  -1131.67513741	      0.00000000	      0.00000000	     -0.00000000	    -96.11057329	      1.16398391	    -15.33451090	   -152.62162781	   -212.18434095	   -707.43487763	      0.00000000	      0.00000000	     -0.00000000	  -1193.35383945	      0.00000000	     -0.00000000	      0.00000000	      0.00000000	      0.00000000	      0.00000000	      0.00000000	      0.00000000	      0.00000000
      4.92000000	      0.00000000	     -0.00000000	      0.00000000	      0.00000000	      0.00000000	      0.00000000	      0.00000000	      0.00000000	      0.00000000	     11.52270889	      6.55013847	    -67.34214020	   -202.34428684	  -1135.36282679	      0.00000000	      0.00000000	     -0.00000000	   -172.58995436	     -0.74616063	    -15.02921193	   -151.79481506	   -210.72539992	   -705.86042794	      0.00000000	      0.00000000	     -0.00000000	  -1430.79446348	      0.00000000	     -0.00000000	      0.00000000	      0.00000000	      0.00000000	      0.00000000	      0.00000000	      0.00000000	      0.00000000
      4.93000000	      0.00000000	     -0.00000000	      0.00000000	      0.00000000	      0.00000000	      0.00000000	      0.00000000	      0.00000000	      0.00000000	     11.82820988	      5.79712296	    -64.54368591	   -197.63324117	  -1129.48321546	      0.00000000	      0.00000000	     -0.00000000	   -198.88137180	     -2.88685648	    -15.47112058	   -152.50686646	   -211.94922259	   -705.80360261	      0.00000000	      0.00000000	     -0.00000000	  -1441.51530126	      0.00000000	     -0.00000000	      0.00000000	      0.00000000	      0.00000000	      0.00000000	      0.00000000	      0.00000000	      0.00000000
      4.94000000	      0.00000000	     -0.00000000	      0.00000000	      0.00000000	      0.00000000	      0.00000000	      0.00000000	      0.00000000	      0.00000000	     12.36257839	      5.08043289	    -63.54255295	   -194.84241449	  -1134.79324619	      0.00000000	      0.00000000	     -0.00000000	   -197.23859194	     -3.96932730	    -17.38433231	   -157.52684021	   -212.51106262	   -705.29534103	      0.00000000	      0.00000000	     -0.00000000	  -1383.55304841	      0.00000000	     -0.00000000	      0.00000000	      0.00000000	      0.00000000	      0.00000000	      0.00000000	      0.00000000	      0.00000000
      4.95000000	      0.00000000	     -0.00000000	      0.00000000	      0.00000000	      0.00000000	      0.00000000	      0.00000000	      0.00000000	      0.00000000	     12.45630169	      4.99136829	    -64.72229767	   -196.05787666	  -1133.07832371	      0.00000000	      0.00000000	     -0.00000000	   -253.43734459	     -5.63318047	    -20.10083340	   -167.54757690	   -214.34458878	   -706.16882614	      0.00000000	      0.00000000	     -0.00000000	  -1183.70180866	      0.00000000	     -0.00000000	      0.00000000	      0.00000000	      0.00000000	      0.00000000	      0.00000000	      0.00000000	      0.00000000
      4.96000000	      0.00000000	     -0.00000000	      0.00000000	      0.00000000	      0.00000000	      0.00000000	      0.00000000	      0.00000000	      0.00000000	     12.57092667	      4.42163038	    -67.53421021	   -199.94894262	  -1142.69947957	      0.00000000	      0.00000000	     -0.00000000	   -186.93977119	     -7.32091347	    -23.64700063	   -186.41638184	   -219.95637967	   -707.65396153	      0.00000000	      0.00000000	     -0.00000000	   -894.61016377	      0.00000000	     -0.00000000	      0.00000000	      0.00000000	      0.00000000	      0.00000000	      0.00000000	      0.00000000	      0.00000000
      4.97000000	      0.00000000	     -0.00000000	      0.00000000	      0.00000000	      0.00000000	      0.00000000	      0.00000000	      0.00000000	      0.00000000	     11.97119999	      4.21798897	    -70.65693665	   -202.27938702	  -1136.37785972	      0.00000000	      0.00000000	      0.00000000	     68.01220537	     -3.21729451	    -25.17559214	   -233.66766357	   -240.48777503	   -710.75644332	      0.00000000	     -0.00000000	     -0.00000000	  -1179.76954543	      0.00000000	     -0.00000000	      0.00000000	      0.00000000	      0.00000000	      0.00000000	      0.00000000	      0.00000000	      0.00000000
      4.98000000	      0.00000000	     -0.00000000	      0.00000000	      0.00000000	      0.00000000	      0.00000000	      0.00000000	      0.00000000	      0.00000000	     10.72931004	      4.90217209	    -75.13211823	   -199.08568494	  -1128.57681542	      0.00000000	      0.00000000	      0.00000000	     80.03043856	      5.68589643	    -26.93011906	   -315.15896606	   -266.26301854	   -716.25028645	      0.00000000	     -0.00000000	     -0.00000000	  -1832.40838367	      0.00000000	     -0.00000000	      0.00000000	      0.00000000	      0.00000000	      0.00000000	      0.00000000	      0.00000000	      0.00000000
      4.99000000	      0.00000000	     -0.00000000	      0.00000000	      0.00000000	      0.00000000	      0.00000000	      0.00000000	      0.00000000	      0.00000000	      9.24946022	      6.64402485	    -83.59139252	   -202.95278881	  -1132.57657374	      0.00000000	      0.00000000	      0.00000000	    296.60321067	     18.56009029	    -30.20959635	   -435.03613281	   -287.54579935	   -721.05625764	      0.00000000	      0.00000000	     -0.00000000	  -2226.29170248	      0.00000000	     -0.00000000	      0.00000000	      0.00000000	      0.00000000	      0.00000000	      0.00000000	      0.00000000	      0.00000000
      5.00000000	      0.00000000	     -0.00000000	      0.00000000	      0.00000000	      0.00000000	      0.00000000	      0.00000000	      0.00000000	      0.00000000	      7.97940922	      8.32876587	    -95.19515228	   -204.22555690	  -1133.62741421	      0.00000000	      0.00000000	      0.00000000	    444.45819346	     32.79818021	    -36.98209668	   -557.45617676	   -300.66679082	   -723.59942149	      0.00000000	      0.00000000	     -0.00000000	  -2493.39481683	      0.00000000	     -0.00000000	      0.00000000	      0.00000000	      0.00000000	      0.00000000	      0.00000000	      0.00000000	      0.00000000
      5.01000000	      0.00000000	     -0.00000000	      0.00000000	      0.00000000	      0.00000000	      0.00000000	      0.00000000	      0.00000000	      0.00000000	      6.05107021	      9.12060356	   -107.83028412	   -206.07190687	  -1134.48180253	      0.00000000	      0.00000000	      0.00000000	    588.22506565	     36.89950543	    -45.72981203	   -649.82385254	   -306.63245090	   -724.83688299	      0.00000000	      0.00000000	     -0.00000000	  -2898.98758643	      0.00000000	     -0.00000000	      0.00000000	      0.00000000	      0.00000000	      0.00000000	      0.00000000	      0.00000000	      0.00000000
      5.02000000	      0.00000000	     -0.00000000	      0.00000000	      0.00000000	      0.00000000	      0.00000000	      0.00000000	      0.00000000	      0.00000000	      9.32462978	      7.99201536	   -138.59793091	   -229.33444572	  -1130.16790754	      0.00000000	      0.00000000	      0.00000000	   1249.29279952	     31.70377035	    -57.85434237	   -713.71368408	   -308.29310005	   -724.87361719	      0.00000000	      0.00000000	     -0.00000000	  -2959.86534062	      0.00000000	     -0.00000000	      0.00000000	      0.00000000	      0.00000000	      0.00000000	      0.00000000	      0.00000000	      0.00000000
